<?xml version="1.0" encoding="utf-8"?>
<!-- Generator: Adobe Illustrator 27.1.0, SVG Export Plug-In . SVG Version: 6.00 Build 0)  -->
<svg version="1.1" id="Layer_1" xmlns="http://www.w3.org/2000/svg" xmlns:xlink="http://www.w3.org/1999/xlink" x="0px" y="0px"
	 viewBox="0 0 360 216" style="enable-background:new 0 0 360 216;" xml:space="preserve">
<style type="text/css">
	.st0{display:none;fill:#231F20;}
	.st1{fill:#231F20;}
	.st2{fill:#FFFFFF;}
	.st3{fill:none;}
	.st4{font-family:'CheapPine';}
	.st5{font-size:55.5285px;}
</style>
<rect class="st0" width="360" height="216"/>
<g>
	<polygon class="st1" points="30.49,141.65 30.49,112.71 280.5,112.71 311.21,119.55 311.21,134.36 280.51,141.65 	"/>
	<path class="st2" d="M280.42,113.46l30.04,6.7v13.62l-30.04,7.13H31.24v-27.45H280.42 M280.58,111.96h-0.17H31.24h-1.5v1.5v27.45
		v1.5h1.5h249.18h0.18l0.17-0.04l30.04-7.13l1.15-0.27v-1.19v-13.62v-1.2l-1.17-0.26l-30.04-6.7L280.58,111.96L280.58,111.96z"/>
</g>
<g>
	<path class="st2" d="M274.16,121.24c0,0,6.04,0.79,6.04,5.94s-6.02,6.03-6.02,6.03H31.68v-11.98H274.16 M274.26,119.74h-0.1H31.68
		h-1.5v1.5v11.98v1.5h1.5h242.5h0.11l0.11-0.02c2.53-0.37,7.31-2.42,7.31-7.52c0-5.12-4.8-7.1-7.35-7.43L274.26,119.74
		L274.26,119.74z"/>
</g>
<g>
	<path class="st1" d="M309.71,119.22l23.6,5.17c0.65,0.15,1.72,0.71,1.72,1.81c0,1.09-1.1,1.59-1.75,1.71l-23.58,6.85V119.22z"/>
	<path class="st2" d="M310.46,120.16l22.69,4.97c0,0,1.13,0.27,1.13,1.08c0,0.76-1.13,0.97-1.13,0.97l-22.69,6.59V120.16
		 M308.96,118.29v1.86v13.62v2l1.92-0.56l22.63-6.57c1.15-0.25,2.27-1.08,2.27-2.43c0-1.38-1.15-2.27-2.29-2.54l-22.72-4.98
		L308.96,118.29L308.96,118.29z"/>
</g>
<rect x="31.24" y="66.63" class="st3" width="423.29" height="96.82"/>
<text transform="matrix(1 0 0 1 31.2365 105.5038)" class="st2 st4 st5">Em’s Creations</text>
</svg>
